<?xml version="1.0" standalone="no"?>
<!DOCTYPE svg PUBLIC "-//W3C//DTD SVG 20010904//EN"
 "http://www.w3.org/TR/2001/REC-SVG-20010904/DTD/svg10.dtd">
<svg version="1.0" xmlns="http://www.w3.org/2000/svg"
 width="250.000000pt" height="250.000000pt" viewBox="0 0 250.000000 250.000000"
 preserveAspectRatio="xMidYMid meet">
<metadata>
Created by potrace 1.11, written by Peter Selinger 2001-2013
</metadata>
<g transform="translate(0.000000,250.000000) scale(0.100000,-0.100000)"
fill="#000000" stroke="none">
<path d="M824 1854 c-48 -23 -76 -58 -89 -111 -16 -61 -3 -112 40 -157 121
-128 330 -7 280 163 -30 98 -142 149 -231 105z"/>
<path d="M1520 1847 c-98 -52 -119 -179 -42 -261 91 -96 248 -54 282 75 15 54
3 105 -34 147 -57 65 -131 79 -206 39z"/>
<path d="M799 1475 c-193 -50 -324 -225 -312 -420 4 -70 16 -113 49 -174 44
-80 24 -157 -55 -218 l-43 -33 64 0 c70 0 152 20 199 49 28 17 34 17 77 4 207
-62 436 55 505 259 9 25 18 74 22 109 10 123 29 170 90 231 87 86 218 108 328
55 228 -112 217 -433 -19 -533 -24 -10 -65 -17 -107 -17 -81 1 -157 34 -209
91 l-35 38 -30 -58 -31 -58 41 -36 c49 -41 84 -60 152 -81 61 -19 176 -20 230
-1 38 13 43 12 105 -16 51 -24 82 -31 150 -34 l85 -4 -36 28 c-48 38 -78 83
-85 126 -5 28 2 52 32 114 36 75 38 84 39 179 0 96 -2 103 -37 176 -157 322
-613 307 -751 -23 -15 -36 -21 -66 -32 -175 -6 -65 -17 -94 -57 -149 -154
-215 -499 -118 -521 146 -11 123 55 235 171 292 36 17 63 22 117 22 85 -1 148
-27 206 -85 22 -22 42 -39 44 -37 1 1 15 27 30 57 l27 54 -29 25 c-104 91
-251 129 -374 97z"/>
</g>
</svg>
